<svg width="25" height="24" viewBox="0 0 25 24" fill="none" xmlns="http://www.w3.org/2000/svg">
<path d="M18.82 20.91C18.82 19.1377 18.1159 17.438 16.8627 16.1848C15.6095 14.9315 13.9098 14.2275 12.1375 14.2275C10.3651 14.2275 8.66543 14.9315 7.41222 16.1848C6.159 17.438 5.45496 19.1377 5.45496 20.91" stroke="black" stroke-width="1.485" stroke-linecap="round" stroke-linejoin="round"/>
<path d="M12.1375 14.2275C14.5979 14.2275 16.5925 12.2329 16.5925 9.7725C16.5925 7.31208 14.5979 5.3175 12.1375 5.3175C9.67707 5.3175 7.6825 7.31208 7.6825 9.7725C7.6825 12.2329 9.67707 14.2275 12.1375 14.2275Z" stroke="black" stroke-width="1.485" stroke-linecap="round" stroke-linejoin="round"/>
<path d="M12.1375 23.1375C18.2886 23.1375 23.275 18.1511 23.275 12C23.275 5.84893 18.2886 0.862503 12.1375 0.862503C5.98643 0.862503 1 5.84893 1 12C1 18.1511 5.98643 23.1375 12.1375 23.1375Z" stroke="black" stroke-width="1.485" stroke-linecap="round" stroke-linejoin="round"/>
</svg>
