<svg id="svg" version="1.1" viewBox="0 0 300 300" width="300" height="300" xmlns="http://www.w3.org/2000/svg"><g xmlns="http://www.w3.org/2000/svg" fill="none" fill-rule="nonzero" stroke="none" stroke-width="1" stroke-linecap="butt" stroke-linejoin="miter" stroke-miterlimit="10" stroke-dasharray="" stroke-dashoffset="0" font-family="none" font-weight="none" font-size="none" text-anchor="none" style="mix-blend-mode: normal"><path d="M0,0c99,0 198,0 300,0c0,99 0,198 0,300c-99,0 -198,0 -300,0c0,-99 0,-198 0,-300z" fill="none"/><path d="M177.22222,55.55556c8.85101,7.21884 14.89972,16.64581 16.66667,28.05556c0.09632,0.5611 0.19264,1.1222 0.29188,1.7003c1.53211,11.10303 -1.5,22.57733 -8.19119,31.55816c-7.54219,9.62319 -17.38637,16.07763 -29.6148,17.93728c-12.67194,1.26791 -24.15259,-1.3832 -34.16992,-9.32075c-9.14906,-7.60212 -15.42862,-18.31602 -16.57986,-30.29514c-0.03138,-0.61885 -0.05334,-1.2382 -0.06944,-1.85764c-0.01432,-0.45368 -0.02864,-0.90736 -0.0434,-1.37478c-0.174,-10.30244 2.81421,-20.19828 9.21007,-28.34744c0.19694,-0.25352 0.39388,-0.50703 0.59679,-0.76823c4.92615,-6.18794 11.31604,-10.59595 18.56988,-13.67622c0.23024,-0.09883 0.46048,-0.19766 0.6977,-0.29948c14.19486,-5.61555 30.76218,-2.53915 42.63563,6.68837z" fill="none"/><path d="M186.11111,48.33333c11.1259,9.80808 18.32025,23.14852 19.44444,38.05556c0.42163,8.27504 -0.41058,16.46704 -3.61111,24.16667c-0.19193,0.4834 -0.38386,0.9668 -0.5816,1.46484c-2.40121,5.8593 -5.64948,11.07348 -9.97287,15.71398c-0.51715,0.55646 -1.00589,1.12833 -1.49414,1.71007c-7.63204,8.71732 -19.21152,14.13477 -30.45139,16.11111c-0.53424,0.0999 -1.06849,0.19981 -1.61892,0.30273c-2.50589,0.31801 -4.95258,0.32609 -7.4783,0.32227c-1.41582,0.00215 -1.41582,0.00215 -2.86024,0.00434c-12.80316,-0.34168 -24.94367,-5.3513 -34.43142,-13.96267c-0.4313,-0.38135 -0.4313,-0.38135 -0.87131,-0.7704c-8.72799,-7.81905 -14.75761,-18.7207 -16.81966,-30.25391c-0.11566,-0.63701 -0.23131,-1.27402 -0.35048,-1.93034c-2.31284,-14.00599 1.02818,-28.66194 9.20464,-40.27452c0.44108,-0.59366 0.88631,-1.18428 1.33681,-1.77083c0.18477,-0.24349 0.36953,-0.48698 0.55989,-0.73785c8.92574,-11.46559 22.2467,-19.23267 36.69054,-21.05577c16.03137,-1.26181 30.89459,2.50601 43.30512,12.90473zM140,47.22222c-0.39245,0.09775 -0.7849,0.19551 -1.18924,0.29622c-11.75454,3.2029 -21.35403,10.85341 -27.54991,21.23806c-4.36204,7.69062 -5.83947,15.81714 -5.70529,24.57682c0.00466,0.32191 0.00931,0.64381 0.01411,0.97548c0.49348,10.56047 5.76749,20.48335 13.04145,27.91341c0.19014,0.2041 0.38027,0.4082 0.57617,0.61849c5.01964,5.28273 12.36142,9.36105 19.42383,11.04818c0.4082,0.10277 0.81641,0.20553 1.23698,0.31141c11.04203,2.41023 23.17924,0.72112 32.90039,-5.12912c11.01584,-7.16994 18.21969,-17.32948 21.12305,-30.16493c2.13791,-11.54612 -0.5133,-23.3183 -6.91732,-33.07075c-3.08739,-4.35644 -6.60276,-7.90032 -10.8431,-11.11328c-0.21878,-0.17152 -0.43756,-0.34303 -0.66298,-0.51975c-4.33286,-3.24381 -9.84976,-5.85872 -15.17036,-6.98025c-0.357,-0.07734 -0.714,-0.15469 -1.08181,-0.23437c-6.16113,-1.12876 -13.09153,-1.31035 -19.19596,0.23438z" fill="#000000"/><path d="M149.94792,172.46528c0.99867,-0.00072 1.99733,-0.00143 3.02626,-0.00217c6.88735,0.08887 13.65561,0.96082 20.35916,2.53689c0.57721,0.13034 1.15443,0.26068 1.74913,0.39497c17.35803,4.09571 33.2697,12.62642 47.69531,22.93837c0.33157,0.23131 0.66315,0.46263 1.00477,0.70096c2.18647,1.53202 4.26321,3.16948 6.32487,4.86545c0.75431,0.61813 1.51251,1.22186 2.28841,1.81207c1.40647,1.08354 2.74208,2.24892 4.08529,3.40929c0.6562,0.56605 1.31501,1.12909 1.977,1.68837c2.91111,2.46299 5.72185,5.03372 8.4158,7.73329c0.89956,0.91924 0.89956,0.91924 1.91081,1.76975c2.24287,1.93682 4.33532,4.06947 6.25109,6.32921c0.69873,0.78042 1.44209,1.51022 2.18641,2.24718c1.0777,1.06835 2.11623,2.14402 3.10004,3.29861c0.66404,0.76696 1.35148,1.51083 2.03884,2.25694c1.17688,1.28067 2.33731,2.57101 3.47222,3.88889c0.23848,0.27536 0.47695,0.55072 0.72266,0.83442c2.59347,3.00747 5.1386,6.05731 7.61068,9.16558c-0.67395,1.34791 -1.4419,1.89576 -2.62153,2.82986c-0.39782,0.31725 -0.79564,0.63451 -1.20551,0.96137c-0.38708,0.30723 -0.77416,0.61445 -1.17296,0.93099c-0.60288,0.49064 -1.20491,0.98233 -1.80556,1.47569c-0.24349,0.19945 -0.48698,0.39889 -0.73785,0.60438c-0.16901,0.13857 -0.33802,0.27715 -0.51215,0.41992c-1.25801,-0.62901 -1.79149,-1.27026 -2.69097,-2.34375c-0.29505,-0.35055 -0.5901,-0.70111 -0.8941,-1.06228c-0.9276,-1.12085 -1.84697,-2.24805 -2.76367,-3.37782c-0.79508,-0.95584 -1.63162,-1.87047 -2.46962,-2.78863c-0.65542,-0.73834 -1.27532,-1.49805 -1.89345,-2.26779c-0.89842,-1.11091 -1.83061,-2.13639 -2.86675,-3.11958c-0.88864,-0.90011 -1.70194,-1.86432 -2.53255,-2.81792c-4.54152,-5.02941 -9.28952,-10.04459 -14.44444,-14.44444c-0.63298,-0.58792 -1.26383,-1.17816 -1.89236,-1.77083c-1.38445,-1.29029 -2.79155,-2.52122 -4.26866,-3.70334c-0.89224,-0.72541 -1.75672,-1.47876 -2.6237,-2.23416c-2.18495,-1.87963 -4.4678,-3.61576 -6.77083,-5.34722c-0.37669,-0.28753 -0.75339,-0.57506 -1.14149,-0.87131c-2.42985,-1.84603 -4.9061,-3.58478 -7.46962,-5.2398c-0.4057,-0.26283 -0.81139,-0.52565 -1.22938,-0.79644c-10.74745,-6.87908 -22.25631,-12.76616 -34.60395,-16.148c-0.3792,-0.11064 -0.7584,-0.22129 -1.14909,-0.33529c-22.98943,-6.30259 -47.01671,-2.82226 -68.29536,7.27973c-0.51527,0.24456 -1.03053,0.48913 -1.56141,0.7411c-11.69562,5.69787 -22.57626,13.23558 -32.42405,21.72743c-0.73676,0.58702 -0.73676,0.58702 -1.29232,0.58702c0,0.18333 0,0.36667 0,0.55556c-0.40286,0.35762 -0.8236,0.6951 -1.25,1.02431c-1.76371,1.41006 -3.39519,2.93966 -5.03255,4.49327c-0.96338,0.90929 -1.93714,1.80758 -2.9145,2.70182c-2.01279,1.87244 -3.96432,3.79404 -5.90712,5.73893c-0.66673,0.66602 -1.33346,1.33203 -2.0204,2.01823c-1.28632,1.31322 -2.51699,2.62708 -3.70877,4.02344c-0.64815,0.64815 -1.2963,1.2963 -1.94444,1.94444c-0.48215,0.53485 -0.9536,1.07772 -1.42361,1.62326c-0.56905,0.65441 -1.15195,1.29481 -1.73611,1.93576c-1.09774,1.21496 -2.13271,2.47145 -3.16189,3.74457c-0.59362,0.71669 -1.20821,1.40394 -1.83811,2.08876c-1.30153,1.42506 -2.47592,2.93851 -3.65126,4.46832c-0.56808,0.71032 -1.14076,1.34863 -1.80013,1.97266c-0.96878,-0.48439 -1.61119,-0.92881 -2.43056,-1.61458c-1.37629,-1.14286 -2.76008,-2.27564 -4.14931,-3.40278c-0.38493,-0.3126 -0.76986,-0.62519 -1.16645,-0.94727c-0.28538,-0.23167 -0.57077,-0.46334 -0.8648,-0.70204c1.39683,-2.79366 3.81758,-5.13707 5.83333,-7.5c0.27679,-0.32585 0.55358,-0.65169 0.83876,-0.98741c1.52397,-1.78808 3.06889,-3.55088 4.65712,-5.28212c0.51458,-0.56449 1.01775,-1.13936 1.51801,-1.71658c1.59166,-1.82911 3.27151,-3.57958 4.93056,-5.34722c0.36416,-0.3903 0.72832,-0.7806 1.10352,-1.18273c5.91146,-6.31855 5.91146,-6.31855 8.42773,-8.48741c0.79828,-0.69003 1.53493,-1.38599 2.27431,-2.13542c0.93127,-0.94241 1.88743,-1.83084 2.89279,-2.69314c0.64894,-0.56144 1.28211,-1.13847 1.91623,-1.71658c1.20003,-1.08295 2.43561,-2.11112 3.69249,-3.12717c0.84673,-0.69247 1.67582,-1.40302 2.50542,-2.11589c1.74446,-1.48134 3.54873,-2.87359 5.37326,-4.25456c0.98231,-0.74436 1.95566,-1.50056 2.92535,-2.26128c2.12508,-1.60685 4.30766,-3.08798 6.52778,-4.56055c0.7763,-0.51634 1.55261,-1.03268 2.35243,-1.56467c14.12597,-9.22036 29.12419,-15.78305 45.56424,-19.51172c0.36595,-0.08988 0.7319,-0.17975 1.10894,-0.27235c1.91131,-0.38912 3.83043,-0.61734 5.76606,-0.85612c1.14082,-0.14233 1.14082,-0.14233 2.30469,-0.28754c3.88648,-0.44095 7.6871,-0.56595 11.60156,-0.56315z" fill="#000000"/></g></svg>